<?xml version="1.0" encoding="UTF-8" standalone="no"?>
<!-- Created with Inkscape (http://www.inkscape.org/) -->

<svg
   width="210mm"
   height="297mm"
   viewBox="0 0 210 297"
   version="1.1"
   id="svg5"
   inkscape:version="1.2.1 (9c6d41e410, 2022-07-14)"
   sodipodi:docname="ICON_thermal_rectifier.svg"
   xml:space="preserve"
   inkscape:export-filename="ICON_thermal_rectifier.png"
   inkscape:export-xdpi="96"
   inkscape:export-ydpi="96"
   xmlns:inkscape="http://www.inkscape.org/namespaces/inkscape"
   xmlns:sodipodi="http://sodipodi.sourceforge.net/DTD/sodipodi-0.dtd"
   xmlns="http://www.w3.org/2000/svg"
   xmlns:svg="http://www.w3.org/2000/svg"><sodipodi:namedview
     id="namedview7"
     pagecolor="#ffffff"
     bordercolor="#000000"
     borderopacity="0.25"
     inkscape:showpageshadow="2"
     inkscape:pageopacity="0.0"
     inkscape:pagecheckerboard="0"
     inkscape:deskcolor="#d1d1d1"
     inkscape:document-units="mm"
     showgrid="true"
     inkscape:zoom="2.6044079"
     inkscape:cx="433.11188"
     inkscape:cy="264.55149"
     inkscape:window-width="2498"
     inkscape:window-height="1417"
     inkscape:window-x="2552"
     inkscape:window-y="-8"
     inkscape:window-maximized="1"
     inkscape:current-layer="layer1"><inkscape:grid
       type="xygrid"
       id="grid13090"
       color="#98ddff"
       opacity="0.14901961"
       empcolor="#9fdfff"
       empopacity="0.30196078" /></sodipodi:namedview><defs
     id="defs2"><marker
       style="overflow:visible"
       id="marker1540"
       refX="0"
       refY="0"
       orient="auto-start-reverse"
       inkscape:stockid="Arrow5"
       markerWidth="3.8870001"
       markerHeight="4.3637118"
       viewBox="0 0 5.8874262 6.6094758"
       inkscape:isstock="true"
       inkscape:collect="always"
       preserveAspectRatio="xMidYMid"><path
         transform="scale(0.5)"
         style="fill:context-stroke;fill-rule:evenodd;stroke:context-stroke;stroke-width:1pt"
         d="m 6,0 c -3,1 -7,3 -9,5 0,0 0,-4 2,-5 -2,-1 -2,-5 -2,-5 2,2 6,4 9,5 z"
         id="path1538" /></marker><marker
       style="overflow:visible"
       id="Arrow5"
       refX="0"
       refY="0"
       orient="auto-start-reverse"
       inkscape:stockid="Arrow5"
       markerWidth="3.8870001"
       markerHeight="4.3637118"
       viewBox="0 0 5.8874262 6.6094758"
       inkscape:isstock="true"
       inkscape:collect="always"
       preserveAspectRatio="xMidYMid"><path
         transform="scale(0.5)"
         style="fill:context-stroke;fill-rule:evenodd;stroke:context-stroke;stroke-width:1pt"
         d="m 6,0 c -3,1 -7,3 -9,5 0,0 0,-4 2,-5 -2,-1 -2,-5 -2,-5 2,2 6,4 9,5 z"
         id="path8893" /></marker><marker
       style="overflow:visible"
       id="marker17796"
       refX="0"
       refY="0"
       orient="auto-start-reverse"
       inkscape:stockid="Arrow1L"
       markerWidth="8.75"
       markerHeight="5"
       viewBox="0 0 8.75 5"
       inkscape:isstock="true"
       inkscape:collect="always"
       preserveAspectRatio="xMidYMid"><path
         style="fill:context-stroke;fill-rule:evenodd;stroke:none"
         d="M 0,0 5,-5 -12.5,0 5,5 Z"
         id="path17794"
         transform="scale(-0.5)" /></marker><marker
       style="overflow:visible"
       id="Arrow1L"
       refX="0"
       refY="0"
       orient="auto-start-reverse"
       inkscape:stockid="Arrow1L"
       markerWidth="8.75"
       markerHeight="5"
       viewBox="0 0 8.75 5"
       inkscape:isstock="true"
       inkscape:collect="always"
       preserveAspectRatio="xMidYMid"><path
         style="fill:context-stroke;fill-rule:evenodd;stroke:none"
         d="M 0,0 5,-5 -12.5,0 5,5 Z"
         id="arrow1L"
         transform="scale(-0.5)" /></marker><marker
       style="overflow:visible"
       id="Arrow1L-9"
       refX="0"
       refY="0"
       orient="auto-start-reverse"
       inkscape:stockid="Arrow1L"
       markerWidth="8.75"
       markerHeight="5"
       viewBox="0 0 8.75 5"
       inkscape:isstock="true"
       inkscape:collect="always"
       preserveAspectRatio="xMidYMid"><path
         style="fill:context-stroke;fill-rule:evenodd;stroke:none"
         d="M 0,0 5,-5 -12.5,0 5,5 Z"
         id="arrow1L-2"
         transform="scale(-0.5)" /></marker><marker
       style="overflow:visible"
       id="marker17796-4"
       refX="0"
       refY="0"
       orient="auto-start-reverse"
       inkscape:stockid="Arrow1L"
       markerWidth="8.75"
       markerHeight="5"
       viewBox="0 0 8.75 5"
       inkscape:isstock="true"
       inkscape:collect="always"
       preserveAspectRatio="xMidYMid"><path
         style="fill:context-stroke;fill-rule:evenodd;stroke:none"
         d="M 0,0 5,-5 -12.5,0 5,5 Z"
         id="path17794-7"
         transform="scale(-0.5)" /></marker></defs><g
     inkscape:groupmode="layer"
     id="layer2"
     inkscape:label="Layer 2"
     sodipodi:insensitive="true"><rect
       style="fill:#f7fef6;fill-opacity:1;stroke-width:1.27636"
       id="rect896"
       width="183.88542"
       height="97.895836"
       x="22.489584"
       y="18.520834"
       ry="0" /></g><g
     inkscape:label="Layer 1"
     inkscape:groupmode="layer"
     id="layer1"><path
       style="fill:#6cff26;fill-opacity:1;stroke:#21f290;stroke-width:1.15285;stroke-dasharray:none;stroke-opacity:1"
       d="m 68.791667,43.65625 27.78125,0"
       id="path3537"
       sodipodi:nodetypes="cc" /><text
       xml:space="preserve"
       style="font-size:7.29539px;fill:#000000;fill-opacity:1;stroke:#000000;stroke-width:0;stroke-dasharray:none;stroke-opacity:1"
       x="70.344872"
       y="50.648651"
       id="text3595"
       transform="scale(0.98168191,1.0186599)"><tspan
         sodipodi:role="line"
         id="tspan3593"
         style="fill:#000000;fill-opacity:1;stroke-width:0;stroke-dasharray:none"
         x="70.344872"
         y="50.648651">|e&gt;</tspan></text><path
       style="fill:none;fill-opacity:1;stroke:#21f290;stroke-width:0.88394;stroke-dasharray:none;stroke-opacity:1"
       d="m 25.025303,60.854165 c 0,0 1.03697,-4.038254 2.07394,-4.038254 1.03697,0 2.073939,4.038255 2.073939,4.038255 0,0 1.03697,4.038254 2.07394,4.038254 1.036969,0 2.073939,-4.038254 2.073939,-4.038254 0,0 1.03697,-4.038255 2.07394,-4.038255 1.036968,0 2.073938,4.038255 2.073938,4.038255 0,0 1.03697,4.038255 2.073939,4.038255 1.03697,0 2.073939,-4.038255 2.073939,-4.038255 0,0 1.03697,-4.038255 2.07394,-4.038255 1.03697,0 2.07394,4.038255 2.07394,4.038255 0,0 1.03697,4.038255 2.073939,4.038255 1.036969,0 2.073939,-4.038255 2.073939,-4.038255 0,0 1.03697,-4.038254 2.073939,-4.038254 1.036969,0 2.07394,4.038255 2.07394,4.038255 0,0 1.036969,4.038254 2.073939,4.038254 1.03697,0 2.07394,-4.038254 2.07394,-4.038254"
       id="path16467"
       sodipodi:nodetypes="czczczczczczczczc" /><ellipse
       style="fill:none;fill-opacity:1;stroke:#14ff91;stroke-width:1;stroke-dasharray:none;stroke-opacity:1"
       id="path16637"
       cx="66.145836"
       cy="43.65625"
       rx="2.6458359"
       ry="2.6458333" /><path
       style="fill:#6cff26;fill-opacity:1;stroke:#21f290;stroke-width:1.15285;stroke-dasharray:none;stroke-opacity:1"
       d="m 68.791667,79.375 h 27.78125"
       id="path17379"
       sodipodi:nodetypes="cc" /><text
       xml:space="preserve"
       style="font-size:7.29539px;fill:#000000;fill-opacity:1;stroke:#000000;stroke-width:0;stroke-dasharray:none;stroke-opacity:1"
       x="70.344872"
       y="85.713104"
       id="text17383"
       transform="scale(0.98168191,1.0186599)"><tspan
         sodipodi:role="line"
         id="tspan17381"
         style="fill:#000000;fill-opacity:1;stroke-width:0;stroke-dasharray:none"
         x="70.344872"
         y="85.713104">|g&gt;</tspan></text><ellipse
       style="fill:none;fill-opacity:1;stroke:#14ff91;stroke-width:1;stroke-dasharray:none;stroke-opacity:1"
       id="ellipse17385"
       cx="66.145836"
       cy="79.375"
       rx="2.6458359"
       ry="2.6458333" /><path
       style="fill:none;fill-opacity:1;stroke:#000000;stroke-width:0.8;stroke-dasharray:none;stroke-opacity:1;marker-start:url(#Arrow1L);marker-end:url(#marker17796)"
       d="M 88.635417,50.270833 V 72.760417"
       id="path17543"
       sodipodi:nodetypes="cc" /><text
       xml:space="preserve"
       style="font-size:8.57532px;fill:#000000;fill-opacity:1;stroke:#000000;stroke-width:0.14;stroke-dasharray:none;stroke-opacity:1"
       x="80.347153"
       y="70.65567"
       id="text18608"
       transform="scale(1.1149719,0.89688359)"><tspan
         sodipodi:role="line"
         id="tspan18606"
         style="fill:#000000;fill-opacity:1;stroke:#000000;stroke-width:0.14;stroke-dasharray:none;stroke-opacity:1"
         x="80.347153"
         y="70.65567">ğœ”</tspan></text><path
       style="fill:none;fill-opacity:1;stroke:#21f290;stroke-width:0.88394;stroke-dasharray:none;stroke-opacity:1"
       d="m 170.54614,60.854166 c 0,0 1.03697,-4.038255 2.07394,-4.038255 1.03697,0 2.07394,4.038255 2.07394,4.038255 0,0 1.03697,4.038254 2.07394,4.038254 1.03697,0 2.07394,-4.038254 2.07394,-4.038254 0,0 1.03697,-4.038255 2.07394,-4.038255 1.03697,0 2.07394,4.038255 2.07394,4.038255 0,0 1.03697,4.038255 2.07394,4.038255 1.03697,0 2.07394,-4.038255 2.07394,-4.038255 0,0 1.03697,-4.038255 2.07394,-4.038255 1.03697,0 2.07394,4.038255 2.07394,4.038255 0,0 1.03697,4.038255 2.07394,4.038255 1.03697,0 2.07394,-4.038255 2.07394,-4.038255 0,0 1.03697,-4.038254 2.07393,-4.038254 1.03697,0 2.07394,4.038255 2.07394,4.038255 0,0 1.03697,4.038254 2.07394,4.038254 1.03697,0 2.07394,-4.038254 2.07394,-4.038254"
       id="path18974"
       sodipodi:nodetypes="czczczczczczczczc" /><text
       xml:space="preserve"
       style="font-size:8.57532px;fill:#000000;fill-opacity:1;stroke:#000000;stroke-width:0.14;stroke-dasharray:none;stroke-opacity:1"
       x="32.887062"
       y="59.150555"
       id="text19736"
       transform="scale(1.1149719,0.89688359)"><tspan
         sodipodi:role="line"
         id="tspan19734"
         style="fill:#000000;fill-opacity:1;stroke:#000000;stroke-width:0.14;stroke-dasharray:none;stroke-opacity:1"
         x="32.887062"
         y="59.150555">ğœ…<tspan
   style="font-size:65%;baseline-shift:sub"
   id="tspan19738">1</tspan></tspan></text><text
       xml:space="preserve"
       style="font-size:8.57532px;fill:#000000;fill-opacity:1;stroke:#000000;stroke-width:0.14;stroke-dasharray:none;stroke-opacity:1"
       x="163.40184"
       y="59.150555"
       id="text19752"
       transform="scale(1.1149719,0.89688359)"><tspan
         sodipodi:role="line"
         id="tspan19750"
         style="fill:#000000;fill-opacity:1;stroke:#000000;stroke-width:0.14;stroke-dasharray:none;stroke-opacity:1"
         x="163.40184"
         y="59.150555">ğœ…<tspan
   style="font-size:65%;baseline-shift:sub"
   id="tspan19748">2</tspan></tspan></text><text
       xml:space="preserve"
       style="font-size:8.99889px;fill:#000000;fill-opacity:1;stroke:#000000;stroke-width:0;stroke-dasharray:none;stroke-opacity:1"
       x="76.030777"
       y="34.148643"
       id="text20997"
       transform="scale(0.95936394,1.0423573)"><tspan
         sodipodi:role="line"
         id="tspan20995"
         style="fill:#000000;fill-opacity:1;stroke-width:0;stroke-dasharray:none"
         x="76.030777"
         y="34.148643">TLS 1</tspan></text><path
       style="fill:#6cff26;fill-opacity:1;stroke:#21f290;stroke-width:1.15285;stroke-dasharray:none;stroke-opacity:1"
       d="m 138.64193,43.65625 h 27.78141"
       id="path3537-1"
       sodipodi:nodetypes="cc" /><text
       xml:space="preserve"
       style="font-size:7.29539px;fill:#000000;fill-opacity:1;stroke:#000000;stroke-width:0;stroke-dasharray:none;stroke-opacity:1"
       x="141.49832"
       y="50.648697"
       id="text3595-3"
       transform="scale(0.98168191,1.0186599)"><tspan
         sodipodi:role="line"
         id="tspan3593-9"
         style="fill:#000000;fill-opacity:1;stroke-width:0;stroke-dasharray:none"
         x="141.49832"
         y="50.648697">|e&gt;</tspan></text><ellipse
       style="fill:none;fill-opacity:1;stroke:#14ff91;stroke-width:1;stroke-dasharray:none;stroke-opacity:1"
       id="path16637-1"
       cx="135.99577"
       cy="43.65625"
       rx="2.6458359"
       ry="2.6458333" /><path
       style="fill:#6cff26;fill-opacity:1;stroke:#21f290;stroke-width:1.15285;stroke-dasharray:none;stroke-opacity:1"
       d="m 138.64193,79.374958 h 27.78141"
       id="path17379-7"
       sodipodi:nodetypes="cc" /><text
       xml:space="preserve"
       style="font-size:7.29539px;fill:#000000;fill-opacity:1;stroke:#000000;stroke-width:0;stroke-dasharray:none;stroke-opacity:1"
       x="141.49832"
       y="85.713158"
       id="text17383-1"
       transform="scale(0.98168191,1.0186599)"><tspan
         sodipodi:role="line"
         id="tspan17381-6"
         style="fill:#000000;fill-opacity:1;stroke-width:0;stroke-dasharray:none"
         x="141.49832"
         y="85.713158">|g&gt;</tspan></text><ellipse
       style="fill:none;fill-opacity:1;stroke:#14ff91;stroke-width:1;stroke-dasharray:none;stroke-opacity:1"
       id="ellipse17385-2"
       cx="135.99577"
       cy="79.375031"
       rx="2.6458359"
       ry="2.6458333" /><path
       style="fill:none;fill-opacity:1;stroke:#000000;stroke-width:0.8;stroke-dasharray:none;stroke-opacity:1;marker-start:url(#Arrow1L-9);marker-end:url(#marker17796-4)"
       d="M 158.48579,50.270833 V 72.760399"
       id="path17543-3"
       sodipodi:nodetypes="cc" /><text
       xml:space="preserve"
       style="font-size:8.57532px;fill:#000000;fill-opacity:1;stroke:#000000;stroke-width:0.14;stroke-dasharray:none;stroke-opacity:1"
       x="142.99431"
       y="70.655708"
       id="text18608-1"
       transform="scale(1.1149719,0.89688359)"><tspan
         sodipodi:role="line"
         id="tspan18606-9"
         style="fill:#000000;fill-opacity:1;stroke:#000000;stroke-width:0.14;stroke-dasharray:none;stroke-opacity:1"
         x="142.99431"
         y="70.655708">0</tspan></text><text
       xml:space="preserve"
       style="font-size:8.99889px;fill:#000000;fill-opacity:1;stroke:#000000;stroke-width:0;stroke-dasharray:none;stroke-opacity:1"
       x="137.89522"
       y="34.267281"
       id="text20997-9"
       transform="scale(0.95936394,1.0423573)"><tspan
         sodipodi:role="line"
         id="tspan20995-3"
         style="fill:#000000;fill-opacity:1;stroke-width:0;stroke-dasharray:none"
         x="137.89522"
         y="34.267281">TLS 2</tspan></text><text
       xml:space="preserve"
       style="font-size:8.99889px;fill:#000000;fill-opacity:1;stroke:#000000;stroke-width:0;stroke-dasharray:none;stroke-opacity:1"
       x="128.24147"
       y="100.5922"
       id="text21001"
       transform="scale(0.95936394,1.0423573)"><tspan
         sodipodi:role="line"
         id="tspan20999"
         style="fill:#000000;fill-opacity:1;stroke-width:0;stroke-dasharray:none"
         x="128.24147"
         y="100.5922">T=0</tspan></text><path
       style="fill:none;fill-opacity:1;stroke:#21f290;stroke-width:1.153;stroke-dasharray:none;stroke-opacity:1"
       d="m 114.34733,113.77083 v -11.90625 h 6.61458"
       id="path21005" /><path
       style="fill:#6cff26;fill-opacity:1;stroke:#21f290;stroke-width:1.15285;stroke-dasharray:none;stroke-opacity:1;marker-start:url(#Arrow5);marker-end:url(#marker1540)"
       d="m 105.83333,60.854167 21.16667,0"
       id="path539"
       sodipodi:nodetypes="cc" /><text
       xml:space="preserve"
       style="font-size:8.57532px;fill:#000000;fill-opacity:1;stroke:#000000;stroke-width:0.14;stroke-dasharray:none;stroke-opacity:1"
       x="101.70424"
       y="64.75563"
       id="text1922"
       transform="scale(1.1149719,0.89688359)"><tspan
         sodipodi:role="line"
         id="tspan1920"
         style="fill:#000000;fill-opacity:1;stroke:#000000;stroke-width:0.14;stroke-dasharray:none;stroke-opacity:1;font-style:italic"
         x="101.70424"
         y="64.75563">d</tspan></text></g></svg>
