<?xml version="1.0" encoding="UTF-8" standalone="no"?>
<!-- Created with Inkscape (http://www.inkscape.org/) -->

<svg
   width="210mm"
   height="297mm"
   viewBox="0 0 210 297"
   version="1.1"
   id="svg5"
   inkscape:version="1.2.1 (9c6d41e410, 2022-07-14)"
   sodipodi:docname="ICON_source_temperature.svg"
   xml:space="preserve"
   inkscape:export-filename="ICON_source_temperature.png"
   inkscape:export-xdpi="96"
   inkscape:export-ydpi="96"
   xmlns:inkscape="http://www.inkscape.org/namespaces/inkscape"
   xmlns:sodipodi="http://sodipodi.sourceforge.net/DTD/sodipodi-0.dtd"
   xmlns="http://www.w3.org/2000/svg"
   xmlns:svg="http://www.w3.org/2000/svg"><sodipodi:namedview
     id="namedview7"
     pagecolor="#ffffff"
     bordercolor="#000000"
     borderopacity="0.25"
     inkscape:showpageshadow="2"
     inkscape:pageopacity="0.0"
     inkscape:pagecheckerboard="0"
     inkscape:deskcolor="#d1d1d1"
     inkscape:document-units="mm"
     showgrid="true"
     inkscape:zoom="2.587745"
     inkscape:cx="226.45199"
     inkscape:cy="252.72969"
     inkscape:window-width="2498"
     inkscape:window-height="1417"
     inkscape:window-x="2552"
     inkscape:window-y="-8"
     inkscape:window-maximized="1"
     inkscape:current-layer="layer1"><inkscape:grid
       type="xygrid"
       id="grid13090"
       color="#98ddff"
       opacity="0.14901961"
       empcolor="#9fdfff"
       empopacity="0.30196078" /></sodipodi:namedview><defs
     id="defs2" /><g
     inkscape:groupmode="layer"
     id="layer2"
     inkscape:label="Layer 2"><rect
       style="fill:#f7fef6;fill-opacity:1;stroke-width:0.675379"
       id="rect896"
       width="63.499996"
       height="79.375"
       x="7.9375"
       y="29.104166"
       ry="0" /></g><g
     inkscape:label="Layer 1"
     inkscape:groupmode="layer"
     id="layer1"><text
       xml:space="preserve"
       style="font-size:12.973px;fill:#000000;fill-opacity:1;stroke:#000000;stroke-width:0;stroke-dasharray:none;stroke-opacity:1"
       x="53.105179"
       y="43.705765"
       id="text20997"
       transform="scale(0.99645024,1.0035624)"><tspan
         sodipodi:role="line"
         id="tspan20995"
         style="fill:#000000;fill-opacity:1;stroke-width:0;stroke-dasharray:none"
         x="53.105179"
         y="43.705765">T</tspan></text><g
       id="path4801" /><g
       id="g4867"
       transform="translate(-3.175)" /><path
       id="path4935"
       style="fill:#21f290;stroke:#21f290;stroke-width:0.219728"
       d="M 64.231455,46.796169 A 0.73145543,0.60352027 0 0 1 63.5,47.399689 0.73145543,0.60352027 0 0 1 62.768545,46.796169 0.73145543,0.60352027 0 0 1 63.5,46.192648 a 0.73145543,0.60352027 0 0 1 0.731455,0.603521 z m 0.487637,3.320152 h 1.828639 m -1.828639,2.514668 h 1.828639 m -1.828639,-7.544003 h 1.828639 m -1.828639,2.514668 h 1.828639 M 64.719092,40.05765 h 1.828639 m -1.828639,2.514669 h 1.828639 m -3.901096,-4.828955 c 0,-0.25111 0.163236,-0.483163 0.426802,-0.608718 0.263568,-0.125555 0.589558,-0.125555 0.853126,0 0.263566,0.125555 0.426802,0.357608 0.426802,0.608718 h -0.243819 c 0,-0.180124 -0.115414,-0.346391 -0.304473,-0.436453 -0.189059,-0.09006 -0.421087,-0.09006 -0.610146,0 -0.189059,0.09006 -0.304473,0.256329 -0.304473,0.436453 z m 0,0 v 16.496221 h 0.243819 V 37.743364 Z m 0.12191,16.496221 V 37.743364 m 1.341001,0 v 16.496221 h 0.243819 V 37.743364 Z m 0.121909,16.496221 V 37.743364 m -2.438184,18.005021 h 3.413458 v 2.414083 h -3.413458 z m 3.535367,-0.100591 v 2.514666 m 10e-7,-2.514665 a 1.8286386,1.5088006 0 0 0 -0.914319,-1.306659 1.8286386,1.5088006 0 0 0 -1.828639,0 1.8286386,1.5088006 0 0 0 -0.91432,1.306659 m 0,2.514665 v -2.514666 m 3.657278,2.514666 a 1.8286386,1.5088006 0 0 1 -0.914319,1.30666 1.8286386,1.5088006 0 0 1 -1.828639,0 1.8286386,1.5088006 0 0 1 -0.91432,-1.30666 m 1.219093,-10.963948 h 1.219092 v 7.041071 h -1.219092 z" /><path
       style="fill:#21f290;stroke:#21f290;stroke-width:0.524999"
       d="M 26.458333,93.927079 47.625,93.92708"
       id="path349"
       sodipodi:nodetypes="cc" /><path
       style="fill:#21f290;stroke:#21f290;stroke-width:0.524999"
       d="m 29.104166,96.572912 15.875,2e-6"
       id="path351"
       sodipodi:nodetypes="cc" /><path
       style="fill:#21f290;stroke:#21f290;stroke-width:0.524999"
       d="m 33.072916,99.218746 7.9375,10e-7"
       id="path353"
       sodipodi:nodetypes="cc" /><path
       style="fill:#21f290;stroke:#21f290;stroke-width:0.524999"
       d="m 35.718749,101.86458 h 2.645834"
       id="path451" /><path
       style="fill:#21f290;stroke:#21f290;stroke-width:0.524999"
       d="m 37.041666,93.927079 v -7.9375"
       id="path453" /><path
       style="fill:none;stroke:#21f290;stroke-width:0.524999"
       id="path507"
       sodipodi:type="arc"
       sodipodi:cx="37.041668"
       sodipodi:cy="80.697906"
       sodipodi:rx="22.489584"
       sodipodi:ry="5.2916665"
       sodipodi:start="0"
       sodipodi:end="3.1415927"
       sodipodi:open="true"
       sodipodi:arc-type="arc"
       d="m 59.531252,80.697906 a 22.489584,5.2916665 0 0 1 -11.244792,4.582718 22.489584,5.2916665 0 0 1 -22.489585,0 22.489584,5.2916665 0 0 1 -11.244791,-4.582718" /><ellipse
       style="fill:none;stroke:#21f290;stroke-width:0.524999"
       id="ellipse1063"
       cx="37.041668"
       cy="51.59375"
       rx="22.489584"
       ry="5.2916665" /><path
       style="fill:none;stroke:#21f290;stroke-width:0.524999"
       d="M 14.552083,51.593746 V 80.697913"
       id="path1171" /><path
       style="fill:none;stroke:#21f290;stroke-width:0.524999"
       d="M 59.531249,80.697913 V 51.593746"
       id="path1173" /><path
       style="fill:none;stroke:#21f290;stroke-width:0.524999"
       d="M 37.041666,51.593749 V 41.010416 h 14.552083"
       id="path1175" /><text
       xml:space="preserve"
       style="font-size:23.4336px;fill:#000000;fill-opacity:1;stroke:#000000;stroke-width:0;stroke-dasharray:none;stroke-opacity:1"
       x="24.089296"
       y="76.035103"
       id="text307"
       transform="scale(1.0203168,0.98008775)"><tspan
         sodipodi:role="line"
         id="tspan305"
         style="fill:#000000;fill-opacity:1;stroke-width:0;stroke-dasharray:none"
         x="24.089296"
         y="76.035103">∞</tspan></text></g></svg>
