<?xml version="1.0" encoding="UTF-8" standalone="no"?>
<!-- Created with Inkscape (http://www.inkscape.org/) -->

<svg
   width="210mm"
   height="297mm"
   viewBox="0 0 210 297"
   version="1.1"
   id="svg5"
   inkscape:version="1.2.1 (9c6d41e410, 2022-07-14)"
   sodipodi:docname="ICON_conducting_TLS.svg"
   xml:space="preserve"
   inkscape:export-filename="ICON_conducting_TLS.png"
   inkscape:export-xdpi="96"
   inkscape:export-ydpi="96"
   xmlns:inkscape="http://www.inkscape.org/namespaces/inkscape"
   xmlns:sodipodi="http://sodipodi.sourceforge.net/DTD/sodipodi-0.dtd"
   xmlns="http://www.w3.org/2000/svg"
   xmlns:svg="http://www.w3.org/2000/svg"><sodipodi:namedview
     id="namedview7"
     pagecolor="#ffffff"
     bordercolor="#000000"
     borderopacity="0.25"
     inkscape:showpageshadow="2"
     inkscape:pageopacity="0.0"
     inkscape:pagecheckerboard="0"
     inkscape:deskcolor="#d1d1d1"
     inkscape:document-units="mm"
     showgrid="true"
     inkscape:zoom="2.587745"
     inkscape:cx="208.86911"
     inkscape:cy="257.75337"
     inkscape:window-width="2498"
     inkscape:window-height="1417"
     inkscape:window-x="2552"
     inkscape:window-y="-8"
     inkscape:window-maximized="1"
     inkscape:current-layer="layer2"><inkscape:grid
       type="xygrid"
       id="grid13090"
       color="#98ddff"
       opacity="0.14901961"
       empcolor="#9fdfff"
       empopacity="0.30196078" /></sodipodi:namedview><defs
     id="defs2"><marker
       style="overflow:visible"
       id="marker17796"
       refX="0"
       refY="0"
       orient="auto-start-reverse"
       inkscape:stockid="Arrow1L"
       markerWidth="8.75"
       markerHeight="5"
       viewBox="0 0 8.75 5"
       inkscape:isstock="true"
       inkscape:collect="always"
       preserveAspectRatio="xMidYMid"><path
         style="fill:context-stroke;fill-rule:evenodd;stroke:none"
         d="M 0,0 5,-5 -12.5,0 5,5 Z"
         id="path17794"
         transform="scale(-0.5)" /></marker><marker
       style="overflow:visible"
       id="Arrow1L"
       refX="0"
       refY="0"
       orient="auto-start-reverse"
       inkscape:stockid="Arrow1L"
       markerWidth="8.75"
       markerHeight="5"
       viewBox="0 0 8.75 5"
       inkscape:isstock="true"
       inkscape:collect="always"
       preserveAspectRatio="xMidYMid"><path
         style="fill:context-stroke;fill-rule:evenodd;stroke:none"
         d="M 0,0 5,-5 -12.5,0 5,5 Z"
         id="arrow1L"
         transform="scale(-0.5)" /></marker></defs><g
     inkscape:groupmode="layer"
     id="layer2"
     inkscape:label="Layer 2"
     sodipodi:insensitive="true"><rect
       style="fill:#f7fef6;fill-opacity:1;stroke-width:1.00978"
       id="rect896"
       width="115.09375"
       height="97.895836"
       x="22.489584"
       y="18.520834"
       ry="0" /></g><g
     inkscape:label="Layer 1"
     inkscape:groupmode="layer"
     id="layer1"><path
       style="fill:#6cff26;fill-opacity:1;stroke:#21f290;stroke-width:1.15285;stroke-dasharray:none;stroke-opacity:1"
       d="m 68.791667,43.65625 27.78125,0"
       id="path3537"
       sodipodi:nodetypes="cc" /><text
       xml:space="preserve"
       style="font-size:7.29539px;fill:#000000;fill-opacity:1;stroke:#000000;stroke-width:0;stroke-dasharray:none;stroke-opacity:1"
       x="70.344872"
       y="50.648651"
       id="text3595"
       transform="scale(0.98168191,1.0186599)"><tspan
         sodipodi:role="line"
         id="tspan3593"
         style="fill:#000000;fill-opacity:1;stroke-width:0;stroke-dasharray:none"
         x="70.344872"
         y="50.648651">|e&gt;</tspan></text><path
       style="fill:none;fill-opacity:1;stroke:#21f290;stroke-width:0.88394;stroke-dasharray:none;stroke-opacity:1"
       d="m 25.025303,60.854165 c 0,0 1.03697,-4.038254 2.07394,-4.038254 1.03697,0 2.073939,4.038255 2.073939,4.038255 0,0 1.03697,4.038254 2.07394,4.038254 1.036969,0 2.073939,-4.038254 2.073939,-4.038254 0,0 1.03697,-4.038255 2.07394,-4.038255 1.036968,0 2.073938,4.038255 2.073938,4.038255 0,0 1.03697,4.038255 2.073939,4.038255 1.03697,0 2.073939,-4.038255 2.073939,-4.038255 0,0 1.03697,-4.038255 2.07394,-4.038255 1.03697,0 2.07394,4.038255 2.07394,4.038255 0,0 1.03697,4.038255 2.073939,4.038255 1.036969,0 2.073939,-4.038255 2.073939,-4.038255 0,0 1.03697,-4.038254 2.073939,-4.038254 1.036969,0 2.07394,4.038255 2.07394,4.038255 0,0 1.036969,4.038254 2.073939,4.038254 1.03697,0 2.07394,-4.038254 2.07394,-4.038254"
       id="path16467"
       sodipodi:nodetypes="czczczczczczczczc" /><ellipse
       style="fill:none;fill-opacity:1;stroke:#14ff91;stroke-width:1;stroke-dasharray:none;stroke-opacity:1"
       id="path16637"
       cx="66.145836"
       cy="43.65625"
       rx="2.6458359"
       ry="2.6458333" /><path
       style="fill:#6cff26;fill-opacity:1;stroke:#21f290;stroke-width:1.15285;stroke-dasharray:none;stroke-opacity:1"
       d="m 68.791667,79.375 h 27.78125"
       id="path17379"
       sodipodi:nodetypes="cc" /><text
       xml:space="preserve"
       style="font-size:7.29539px;fill:#000000;fill-opacity:1;stroke:#000000;stroke-width:0;stroke-dasharray:none;stroke-opacity:1"
       x="70.344872"
       y="85.713104"
       id="text17383"
       transform="scale(0.98168191,1.0186599)"><tspan
         sodipodi:role="line"
         id="tspan17381"
         style="fill:#000000;fill-opacity:1;stroke-width:0;stroke-dasharray:none"
         x="70.344872"
         y="85.713104">|g&gt;</tspan></text><ellipse
       style="fill:none;fill-opacity:1;stroke:#14ff91;stroke-width:1;stroke-dasharray:none;stroke-opacity:1"
       id="ellipse17385"
       cx="66.145836"
       cy="79.375"
       rx="2.6458359"
       ry="2.6458333" /><path
       style="fill:none;fill-opacity:1;stroke:#000000;stroke-width:0.8;stroke-dasharray:none;stroke-opacity:1;marker-start:url(#Arrow1L);marker-end:url(#marker17796)"
       d="M 88.635417,50.270833 V 72.760417"
       id="path17543"
       sodipodi:nodetypes="cc" /><text
       xml:space="preserve"
       style="font-size:8.57532px;fill:#000000;fill-opacity:1;stroke:#000000;stroke-width:0.14;stroke-dasharray:none;stroke-opacity:1"
       x="80.347153"
       y="70.65567"
       id="text18608"
       transform="scale(1.1149719,0.89688359)"><tspan
         sodipodi:role="line"
         id="tspan18606"
         style="fill:#000000;fill-opacity:1;stroke:#000000;stroke-width:0.14;stroke-dasharray:none;stroke-opacity:1"
         x="80.347153"
         y="70.65567">ğœ”</tspan></text><path
       style="fill:none;fill-opacity:1;stroke:#21f290;stroke-width:0.88394;stroke-dasharray:none;stroke-opacity:1"
       d="m 101.86458,60.854167 c 0,0 1.03697,-4.038255 2.07394,-4.038255 1.03697,0 2.07394,4.038255 2.07394,4.038255 0,0 1.03697,4.038254 2.07394,4.038254 1.03697,0 2.07394,-4.038254 2.07394,-4.038254 0,0 1.03697,-4.038255 2.07394,-4.038255 1.03697,0 2.07394,4.038255 2.07394,4.038255 0,0 1.03697,4.038255 2.07394,4.038255 1.03697,0 2.07394,-4.038255 2.07394,-4.038255 0,0 1.03697,-4.038255 2.07394,-4.038255 1.03697,0 2.07394,4.038255 2.07394,4.038255 0,0 1.03697,4.038255 2.07394,4.038255 1.03697,0 2.07394,-4.038255 2.07394,-4.038255 0,0 1.03697,-4.038254 2.07393,-4.038254 1.03697,0 2.07394,4.038255 2.07394,4.038255 0,0 1.03697,4.038254 2.07394,4.038254 1.03697,0 2.07394,-4.038254 2.07394,-4.038254"
       id="path18974"
       sodipodi:nodetypes="czczczczczczczczc" /><text
       xml:space="preserve"
       style="font-size:8.57532px;fill:#000000;fill-opacity:1;stroke:#000000;stroke-width:0.14;stroke-dasharray:none;stroke-opacity:1"
       x="32.887062"
       y="59.150555"
       id="text19736"
       transform="scale(1.1149719,0.89688359)"><tspan
         sodipodi:role="line"
         id="tspan19734"
         style="fill:#000000;fill-opacity:1;stroke:#000000;stroke-width:0.14;stroke-dasharray:none;stroke-opacity:1"
         x="32.887062"
         y="59.150555">ğœ…<tspan
   style="font-size:65%;baseline-shift:sub"
   id="tspan19738">1</tspan></tspan></text><text
       xml:space="preserve"
       style="font-size:8.57532px;fill:#000000;fill-opacity:1;stroke:#000000;stroke-width:0.14;stroke-dasharray:none;stroke-opacity:1"
       x="101.80295"
       y="59.150555"
       id="text19752"
       transform="scale(1.1149719,0.89688359)"><tspan
         sodipodi:role="line"
         id="tspan19750"
         style="fill:#000000;fill-opacity:1;stroke:#000000;stroke-width:0.14;stroke-dasharray:none;stroke-opacity:1"
         x="101.80295"
         y="59.150555">ğœ…<tspan
   style="font-size:65%;baseline-shift:sub"
   id="tspan19748">2</tspan></tspan></text><text
       xml:space="preserve"
       style="font-size:8.99889px;fill:#000000;fill-opacity:1;stroke:#000000;stroke-width:0;stroke-dasharray:none;stroke-opacity:1"
       x="75.014984"
       y="34.148643"
       id="text20997"
       transform="scale(0.95936394,1.0423573)"><tspan
         sodipodi:role="line"
         id="tspan20995"
         style="fill:#000000;fill-opacity:1;stroke-width:0;stroke-dasharray:none"
         x="75.014984"
         y="34.148643">TLS</tspan></text><text
       xml:space="preserve"
       style="font-size:8.99889px;fill:#000000;fill-opacity:1;stroke:#000000;stroke-width:0;stroke-dasharray:none;stroke-opacity:1"
       x="91.787796"
       y="100.5922"
       id="text21001"
       transform="scale(0.95936394,1.0423573)"><tspan
         sodipodi:role="line"
         id="tspan20999"
         style="fill:#000000;fill-opacity:1;stroke-width:0;stroke-dasharray:none"
         x="91.787796"
         y="100.5922">T=0</tspan></text><path
       style="fill:none;fill-opacity:1;stroke:#21f290;stroke-width:1.153;stroke-dasharray:none;stroke-opacity:1"
       d="m 79.374999,113.77083 v -11.90625 h 6.614584"
       id="path21005" /></g></svg>
