<?xml version="1.0" encoding="UTF-8" standalone="no"?>
<!-- Created with Inkscape (http://www.inkscape.org/) -->

<svg
   width="210mm"
   height="297mm"
   viewBox="0 0 210 297"
   version="1.1"
   id="svg5"
   inkscape:version="1.2.1 (9c6d41e410, 2022-07-14)"
   sodipodi:docname="ICON_sensor_heat_flow.svg"
   xml:space="preserve"
   inkscape:export-filename="ICON_sensor_heat_flow.png"
   inkscape:export-xdpi="96"
   inkscape:export-ydpi="96"
   xmlns:inkscape="http://www.inkscape.org/namespaces/inkscape"
   xmlns:sodipodi="http://sodipodi.sourceforge.net/DTD/sodipodi-0.dtd"
   xmlns="http://www.w3.org/2000/svg"
   xmlns:svg="http://www.w3.org/2000/svg"><sodipodi:namedview
     id="namedview7"
     pagecolor="#ffffff"
     bordercolor="#000000"
     borderopacity="0.25"
     inkscape:showpageshadow="2"
     inkscape:pageopacity="0.0"
     inkscape:pagecheckerboard="0"
     inkscape:deskcolor="#d1d1d1"
     inkscape:document-units="mm"
     showgrid="true"
     inkscape:zoom="2.587745"
     inkscape:cx="205.00474"
     inkscape:cy="258.13981"
     inkscape:window-width="2498"
     inkscape:window-height="1417"
     inkscape:window-x="54"
     inkscape:window-y="-8"
     inkscape:window-maximized="1"
     inkscape:current-layer="layer3"><inkscape:grid
       type="xygrid"
       id="grid13090"
       color="#98ddff"
       opacity="0.14901961"
       empcolor="#9fdfff"
       empopacity="0.30196078" /></sodipodi:namedview><defs
     id="defs2"><inkscape:perspective
       sodipodi:type="inkscape:persp3d"
       inkscape:vp_x="0 : 148.5 : 1"
       inkscape:vp_y="0 : 1000 : 0"
       inkscape:vp_z="210 : 148.5 : 1"
       inkscape:persp3d-origin="105 : 99 : 1"
       id="perspective4385" /><marker
       style="overflow:visible"
       id="Arrow5"
       refX="0"
       refY="0"
       orient="auto-start-reverse"
       inkscape:stockid="Arrow5"
       markerWidth="5.8874264"
       markerHeight="6.6094756"
       viewBox="0 0 5.8874262 6.6094758"
       inkscape:isstock="true"
       inkscape:collect="always"
       preserveAspectRatio="xMidYMid"><path
         transform="scale(0.5)"
         style="fill:context-stroke;fill-rule:evenodd;stroke:context-stroke;stroke-width:1pt"
         d="m 6,0 c -3,1 -7,3 -9,5 0,0 0,-4 2,-5 -2,-1 -2,-5 -2,-5 2,2 6,4 9,5 z"
         id="path8893" /></marker></defs><g
     inkscape:groupmode="layer"
     id="layer3"
     inkscape:label="Layer 2"
     transform="matrix(0.40229886,0,0,0.45945943,9.4733004,15.302928)"><rect
       style="fill:#f7fef6;fill-opacity:1;stroke-width:1.00978"
       id="rect896"
       width="115.09375"
       height="97.895836"
       x="22.489584"
       y="18.520834"
       ry="0" /></g><g
     inkscape:label="Layer 1"
     inkscape:groupmode="layer"
     id="layer1"><path
       style="fill:none;fill-opacity:1;stroke:#21f290;stroke-width:0.88394;stroke-dasharray:none;stroke-opacity:1"
       d="m 25.135417,47.625 c 0,0 1.03697,-4.038254 2.07394,-4.038254 1.03697,0 2.073939,4.038255 2.073939,4.038255 0,0 1.03697,4.038254 2.07394,4.038254 1.036969,0 2.073939,-4.038254 2.073939,-4.038254 0,0 1.03697,-4.038255 2.07394,-4.038255 1.036968,0 2.073938,4.038255 2.073938,4.038255 0,0 1.03697,4.038255 2.073939,4.038255 1.03697,0 2.073939,-4.038255 2.073939,-4.038255 0,0 1.03697,-4.038255 2.07394,-4.038255 1.03697,0 2.07394,4.038255 2.07394,4.038255 0,0 1.03697,4.038255 2.073939,4.038255 1.036969,0 2.073939,-4.038255 2.073939,-4.038255 0,0 1.03697,-4.038254 2.073939,-4.038254 1.036969,0 2.07394,4.038255 2.07394,4.038255 0,0 1.036969,4.038254 2.073939,4.038254 1.03697,0 2.07394,-4.038254 2.07394,-4.038254"
       id="path16467"
       sodipodi:nodetypes="czczczczczczczczc" /><path
       style="fill:none;fill-opacity:1;stroke:#000000;stroke-width:0.8;stroke-dasharray:none;stroke-opacity:1;marker-end:url(#Arrow5)"
       d="m 27.78125,38.364583 23.812501,0"
       id="path17543"
       sodipodi:nodetypes="cc" /><text
       xml:space="preserve"
       style="font-size:8.57532px;fill:#000000;fill-opacity:1;stroke:#000000;stroke-width:0.14;stroke-dasharray:none;stroke-opacity:1"
       x="33.595161"
       y="39.659424"
       id="text18608"
       transform="scale(1.1149719,0.89688359)"><tspan
         sodipodi:role="line"
         id="tspan18606"
         style="fill:#000000;fill-opacity:1;stroke:#000000;stroke-width:0.14;stroke-dasharray:none;stroke-opacity:1"
         x="33.595161"
         y="39.659424">J</tspan></text><path
       style="fill:none;fill-opacity:1;stroke:#21f290;stroke-width:0.88394;stroke-dasharray:none;stroke-opacity:1"
       d="m 25.135417,52.916667 c 0,0 1.03697,-4.038254 2.07394,-4.038254 1.03697,0 2.073939,4.038255 2.073939,4.038255 0,0 1.03697,4.038254 2.07394,4.038254 1.036969,0 2.073939,-4.038254 2.073939,-4.038254 0,0 1.03697,-4.038255 2.07394,-4.038255 1.036968,0 2.073938,4.038255 2.073938,4.038255 0,0 1.03697,4.038255 2.073939,4.038255 1.03697,0 2.073939,-4.038255 2.073939,-4.038255 0,0 1.03697,-4.038255 2.07394,-4.038255 1.03697,0 2.07394,4.038255 2.07394,4.038255 0,0 1.03697,4.038255 2.073939,4.038255 1.036969,0 2.073939,-4.038255 2.073939,-4.038255 0,0 1.03697,-4.038254 2.073939,-4.038254 1.036969,0 2.07394,4.038255 2.07394,4.038255 0,0 1.036969,4.038254 2.073939,4.038254 1.03697,0 2.07394,-4.038254 2.07394,-4.038254"
       id="path3585"
       sodipodi:nodetypes="czczczczczczczczc" /><path
       style="fill:none;fill-opacity:1;stroke:#21f290;stroke-width:0.88394;stroke-dasharray:none;stroke-opacity:1"
       d="m 25.135417,58.208333 c 0,0 1.03697,-4.038254 2.07394,-4.038254 1.03697,0 2.073939,4.038255 2.073939,4.038255 0,0 1.03697,4.038254 2.07394,4.038254 1.036969,0 2.073939,-4.038254 2.073939,-4.038254 0,0 1.03697,-4.038255 2.07394,-4.038255 1.036968,0 2.073938,4.038255 2.073938,4.038255 0,0 1.03697,4.038255 2.073939,4.038255 1.03697,0 2.073939,-4.038255 2.073939,-4.038255 0,0 1.03697,-4.038255 2.07394,-4.038255 1.03697,0 2.07394,4.038255 2.07394,4.038255 0,0 1.03697,4.038255 2.073939,4.038255 1.036969,0 2.073939,-4.038255 2.073939,-4.038255 0,0 1.03697,-4.038254 2.073939,-4.038254 1.036969,0 2.07394,4.038255 2.07394,4.038255 0,0 1.036969,4.038254 2.073939,4.038254 1.03697,0 2.07394,-4.038254 2.07394,-4.038254"
       id="path3587"
       sodipodi:nodetypes="czczczczczczczczc" /></g></svg>
