<?xml version="1.0" encoding="UTF-8" standalone="no"?>
<!-- Created with Inkscape (http://www.inkscape.org/) -->

<svg
   width="210mm"
   height="297mm"
   viewBox="0 0 210 297"
   version="1.1"
   id="svg5"
   inkscape:version="1.2.1 (9c6d41e410, 2022-07-14)"
   sodipodi:docname="ICON_source_controlled_temperature.svg"
   xml:space="preserve"
   inkscape:export-filename="ICON_source_controlled_temperature.png"
   inkscape:export-xdpi="96"
   inkscape:export-ydpi="96"
   xmlns:inkscape="http://www.inkscape.org/namespaces/inkscape"
   xmlns:sodipodi="http://sodipodi.sourceforge.net/DTD/sodipodi-0.dtd"
   xmlns="http://www.w3.org/2000/svg"
   xmlns:svg="http://www.w3.org/2000/svg"><sodipodi:namedview
     id="namedview7"
     pagecolor="#ffffff"
     bordercolor="#000000"
     borderopacity="0.25"
     inkscape:showpageshadow="2"
     inkscape:pageopacity="0.0"
     inkscape:pagecheckerboard="0"
     inkscape:deskcolor="#d1d1d1"
     inkscape:document-units="mm"
     showgrid="true"
     inkscape:zoom="2.587745"
     inkscape:cx="213.31314"
     inkscape:cy="252.72969"
     inkscape:window-width="2498"
     inkscape:window-height="1417"
     inkscape:window-x="54"
     inkscape:window-y="-8"
     inkscape:window-maximized="1"
     inkscape:current-layer="layer2"><inkscape:grid
       type="xygrid"
       id="grid13090"
       color="#98ddff"
       opacity="0.14901961"
       empcolor="#9fdfff"
       empopacity="0.30196078" /></sodipodi:namedview><defs
     id="defs2"><marker
       style="overflow:visible"
       id="marker1526"
       refX="0"
       refY="0"
       orient="auto-start-reverse"
       inkscape:stockid="Arrow5"
       markerWidth="5.8874264"
       markerHeight="6.6094756"
       viewBox="0 0 5.8874262 6.6094758"
       inkscape:isstock="true"
       inkscape:collect="always"
       preserveAspectRatio="xMidYMid"><path
         transform="scale(0.5)"
         style="fill:context-stroke;fill-rule:evenodd;stroke:context-stroke;stroke-width:1pt"
         d="m 6,0 c -3,1 -7,3 -9,5 0,0 0,-4 2,-5 -2,-1 -2,-5 -2,-5 2,2 6,4 9,5 z"
         id="path1524" /></marker><marker
       style="overflow:visible"
       id="Arrow5"
       refX="0"
       refY="0"
       orient="auto-start-reverse"
       inkscape:stockid="Arrow5"
       markerWidth="5.8874264"
       markerHeight="6.6094756"
       viewBox="0 0 5.8874262 6.6094758"
       inkscape:isstock="true"
       inkscape:collect="always"
       preserveAspectRatio="xMidYMid"><path
         transform="scale(0.5)"
         style="fill:context-stroke;fill-rule:evenodd;stroke:context-stroke;stroke-width:1pt"
         d="m 6,0 c -3,1 -7,3 -9,5 0,0 0,-4 2,-5 -2,-1 -2,-5 -2,-5 2,2 6,4 9,5 z"
         id="path8893" /></marker></defs><g
     inkscape:groupmode="layer"
     id="layer2"
     inkscape:label="Layer 2"
     sodipodi:insensitive="true"><rect
       style="fill:#f7fef6;fill-opacity:1;stroke-width:0.78593"
       id="rect896"
       width="85.989586"
       height="79.375"
       x="7.9375"
       y="29.104166"
       ry="0" /></g><g
     inkscape:label="Layer 1"
     inkscape:groupmode="layer"
     id="layer1"><text
       xml:space="preserve"
       style="font-size:12.973px;fill:#000000;fill-opacity:1;stroke:#000000;stroke-width:0;stroke-dasharray:none;stroke-opacity:1"
       x="77.00251"
       y="43.520538"
       id="text20997"
       transform="scale(0.99645024,1.0035624)"><tspan
         sodipodi:role="line"
         id="tspan20995"
         style="fill:#000000;fill-opacity:1;stroke-width:0;stroke-dasharray:none"
         x="77.00251"
         y="43.520538">T</tspan></text><g
       id="path4801" /><g
       id="g4867"
       transform="translate(-3.175)" /><path
       id="path4935"
       style="fill:#21f290;stroke:#21f290;stroke-width:0.219728"
       d="m 88.043955,46.610284 a 0.73145543,0.60352027 0 0 1 -0.731455,0.60352 0.73145543,0.60352027 0 0 1 -0.731455,-0.60352 0.73145543,0.60352027 0 0 1 0.731455,-0.603521 0.73145543,0.60352027 0 0 1 0.731455,0.603521 z m 0.487637,3.320152 h 1.828639 m -1.828639,2.514668 h 1.828639 m -1.828639,-7.544003 h 1.828639 m -1.828639,2.514668 h 1.828639 m -1.828639,-7.544004 h 1.828639 m -1.828639,2.514669 h 1.828639 m -3.901096,-4.828955 c 0,-0.25111 0.163236,-0.483163 0.426802,-0.608718 0.263568,-0.125555 0.589558,-0.125555 0.853126,0 0.263566,0.125555 0.426802,0.357608 0.426802,0.608718 h -0.243819 c 0,-0.180124 -0.115414,-0.346391 -0.304473,-0.436453 -0.189059,-0.09006 -0.421087,-0.09006 -0.610146,0 -0.189059,0.09006 -0.304473,0.256329 -0.304473,0.436453 z m 0,0 V 54.0537 h 0.243819 V 37.557479 Z M 86.581045,54.0537 V 37.557479 m 1.341001,0 V 54.0537 h 0.243819 V 37.557479 Z M 88.043955,54.0537 V 37.557479 M 85.605771,55.5625 h 3.413458 v 2.414083 h -3.413458 z m 3.535367,-0.100591 v 2.514666 m 10e-7,-2.514665 a 1.8286386,1.5088006 0 0 0 -0.914319,-1.306659 1.8286386,1.5088006 0 0 0 -1.828639,0 1.8286386,1.5088006 0 0 0 -0.91432,1.306659 m 0,2.514665 v -2.514666 m 3.657278,2.514666 a 1.8286386,1.5088006 0 0 1 -0.914319,1.30666 1.8286386,1.5088006 0 0 1 -1.828639,0 1.8286386,1.5088006 0 0 1 -0.91432,-1.30666 m 1.219093,-10.963948 h 1.219092 v 7.041071 h -1.219092 z" /><path
       style="fill:#21f290;stroke:#21f290;stroke-width:0.524999"
       d="m 50.270833,93.741194 21.166667,1e-6"
       id="path349"
       sodipodi:nodetypes="cc" /><path
       style="fill:#21f290;stroke:#21f290;stroke-width:0.524999"
       d="m 52.916666,96.387027 15.875,2e-6"
       id="path351"
       sodipodi:nodetypes="cc" /><path
       style="fill:#21f290;stroke:#21f290;stroke-width:0.524999"
       d="m 56.885416,99.032861 7.9375,10e-7"
       id="path353"
       sodipodi:nodetypes="cc" /><path
       style="fill:#21f290;stroke:#21f290;stroke-width:0.524999"
       d="m 59.531249,101.67869 h 2.645834"
       id="path451" /><path
       style="fill:#21f290;stroke:#21f290;stroke-width:0.524999"
       d="m 60.854166,93.741194 v -7.9375"
       id="path453" /><path
       style="fill:none;stroke:#21f290;stroke-width:0.524999"
       id="path507"
       sodipodi:type="arc"
       sodipodi:cx="60.854168"
       sodipodi:cy="80.512024"
       sodipodi:rx="22.489584"
       sodipodi:ry="5.2916665"
       sodipodi:start="0"
       sodipodi:end="3.1415927"
       sodipodi:open="true"
       sodipodi:arc-type="arc"
       d="M 83.343752,80.512024 A 22.489584,5.2916665 0 0 1 72.09896,85.094742 22.489584,5.2916665 0 0 1 49.609375,85.094741 22.489584,5.2916665 0 0 1 38.364584,80.512024" /><ellipse
       style="fill:none;stroke:#21f290;stroke-width:0.524999"
       id="ellipse1063"
       cx="60.854168"
       cy="51.407864"
       rx="22.489584"
       ry="5.2916665" /><path
       style="fill:none;stroke:#21f290;stroke-width:0.524999"
       d="M 38.364583,51.407861 V 80.512028"
       id="path1171" /><path
       style="fill:none;stroke:#21f290;stroke-width:0.524999"
       d="M 83.343749,80.512028 V 51.407861"
       id="path1173" /><path
       style="fill:none;stroke:#21f290;stroke-width:0.524999"
       d="M 60.854166,51.407864 V 40.824531 h 14.552083"
       id="path1175" /><text
       xml:space="preserve"
       style="font-size:23.4336px;fill:#000000;fill-opacity:1;stroke:#000000;stroke-width:0;stroke-dasharray:none;stroke-opacity:1"
       x="47.427635"
       y="75.845444"
       id="text307"
       transform="scale(1.0203168,0.98008775)"><tspan
         sodipodi:role="line"
         id="tspan305"
         style="fill:#000000;fill-opacity:1;stroke-width:0;stroke-dasharray:none"
         x="47.427635"
         y="75.845444">∞</tspan></text><path
       id="path311"
       style="fill:#21f290;stroke:#21f290;stroke-width:0.219728"
       d="M 32.481455,70.654534 A 0.73145543,0.60352027 0 0 1 31.75,71.258054 0.73145543,0.60352027 0 0 1 31.018545,70.654534 0.73145543,0.60352027 0 0 1 31.75,70.051013 a 0.73145543,0.60352027 0 0 1 0.731455,0.603521 z m 0.487637,3.320152 h 1.828639 m -1.828639,2.514668 h 1.828639 m -1.828639,-7.544003 h 1.828639 m -1.828639,2.514668 h 1.828639 m -1.828639,-7.544004 h 1.828639 m -1.828639,2.514669 h 1.828639 m -3.901096,-4.828955 c 0,-0.25111 0.163236,-0.483163 0.426802,-0.608718 0.263568,-0.125555 0.589558,-0.125555 0.853126,0 0.263566,0.125555 0.426802,0.357608 0.426802,0.608718 h -0.243819 c 0,-0.180124 -0.115414,-0.346391 -0.304473,-0.436453 -0.189059,-0.09006 -0.421087,-0.09006 -0.610146,0 -0.189059,0.09006 -0.304473,0.256329 -0.304473,0.436453 z m 0,0 V 78.09795 h 0.243819 V 61.601729 Z m 0.12191,16.496221 V 61.601729 m 1.341001,0 V 78.09795 h 0.243819 V 61.601729 Z M 32.481455,78.09795 V 61.601729 M 30.043271,79.60675 h 3.413458 v 2.414083 h -3.413458 z m 3.535367,-0.100591 v 2.514666 m 1e-6,-2.514665 a 1.8286386,1.5088006 0 0 0 -0.914319,-1.306657 1.8286386,1.5088006 0 0 0 -1.828639,0 1.8286386,1.5088006 0 0 0 -0.91432,1.306657 m 0,2.514665 v -2.514666 m 3.657278,2.514666 a 1.8286386,1.5088006 0 0 1 -0.914319,1.30666 1.8286386,1.5088006 0 0 1 -1.828639,0 1.8286386,1.5088006 0 0 1 -0.91432,-1.30666 m 1.219093,-10.963948 h 1.219092 v 7.041071 h -1.219092 z" /><path
       style="fill:#21f290;fill-opacity:1;stroke:#21f290;stroke-width:0.55;stroke-dasharray:none;stroke-opacity:1;marker-start:url(#Arrow5);marker-end:url(#marker1526)"
       d="M 27.781253,75.657326 V 66.39691"
       id="path367" /></g></svg>
