<?xml version="1.0" encoding="UTF-8" standalone="no"?>
<!-- Created with Inkscape (http://www.inkscape.org/) -->

<svg
   width="210mm"
   height="297mm"
   viewBox="0 0 210 297"
   version="1.1"
   id="svg5"
   inkscape:version="1.2.1 (9c6d41e410, 2022-07-14)"
   sodipodi:docname="ICON_sensor_temperature.svg"
   xml:space="preserve"
   inkscape:export-filename="ICON_sensor_temperature.png"
   inkscape:export-xdpi="96"
   inkscape:export-ydpi="96"
   xmlns:inkscape="http://www.inkscape.org/namespaces/inkscape"
   xmlns:sodipodi="http://sodipodi.sourceforge.net/DTD/sodipodi-0.dtd"
   xmlns="http://www.w3.org/2000/svg"
   xmlns:svg="http://www.w3.org/2000/svg"><sodipodi:namedview
     id="namedview7"
     pagecolor="#ffffff"
     bordercolor="#000000"
     borderopacity="0.25"
     inkscape:showpageshadow="2"
     inkscape:pageopacity="0.0"
     inkscape:pagecheckerboard="0"
     inkscape:deskcolor="#d1d1d1"
     inkscape:document-units="mm"
     showgrid="true"
     inkscape:zoom="2.587745"
     inkscape:cx="227.03164"
     inkscape:cy="251.57038"
     inkscape:window-width="2498"
     inkscape:window-height="1417"
     inkscape:window-x="54"
     inkscape:window-y="-8"
     inkscape:window-maximized="1"
     inkscape:current-layer="layer1"><inkscape:grid
       type="xygrid"
       id="grid13090"
       color="#98ddff"
       opacity="0.14901961"
       empcolor="#9fdfff"
       empopacity="0.30196078" /></sodipodi:namedview><defs
     id="defs2" /><g
     inkscape:groupmode="layer"
     id="layer2"
     inkscape:label="Layer 2"><rect
       style="fill:#f7fef6;fill-opacity:1;stroke-width:0.511203"
       id="rect896"
       width="39.6875"
       height="72.760414"
       x="30.427084"
       y="35.71875"
       ry="0" /></g><g
     inkscape:label="Layer 1"
     inkscape:groupmode="layer"
     id="layer1"><text
       xml:space="preserve"
       style="font-size:12.973px;fill:#000000;fill-opacity:1;stroke:#000000;stroke-width:0;stroke-dasharray:none;stroke-opacity:1"
       x="57.059753"
       y="48.97863"
       id="text20997"
       transform="scale(0.99645023,1.0035624)"><tspan
         sodipodi:role="line"
         id="tspan20995"
         style="fill:#000000;fill-opacity:1;stroke-width:0;stroke-dasharray:none"
         x="57.059753"
         y="48.97863">T</tspan></text><g
       id="path4801" /><g
       id="g4867"
       transform="translate(-3.175)" /><path
       id="path4935"
       style="fill:#21f290;stroke:#21f290;stroke-width:0.524999"
       d="m 50.535417,67.733332 a 1.5875,1.5875 0 0 1 -1.5875,1.5875 1.5875,1.5875 0 0 1 -1.5875,-1.5875 1.5875,1.5875 0 0 1 1.5875,-1.5875 1.5875,1.5875 0 0 1 1.5875,1.5875 z m 1.058333,8.733331 h 3.96875 m -3.96875,6.614584 H 55.5625 M 51.59375,63.237496 H 55.5625 M 51.59375,69.85208 H 55.5625 M 51.59375,50.00833 h 3.96875 m -3.96875,6.614584 H 55.5625 M 47.095834,43.92083 c 0,-0.66052 0.354275,-1.270912 0.926302,-1.601172 0.572027,-0.33026 1.279535,-0.33026 1.851562,0 C 50.445725,42.649918 50.8,43.26031 50.8,43.92083 h -0.529166 c 0,-0.473798 -0.250487,-0.911148 -0.660808,-1.148047 -0.41032,-0.236899 -0.913898,-0.236899 -1.324218,0 C 47.875487,43.009682 47.625,43.447032 47.625,43.92083 Z m 0,0 V 87.312497 H 47.625 V 43.92083 Z m 0.264583,43.391667 V 43.92083 m 2.910417,0 V 87.312497 H 50.8 V 43.92083 Z m 0.264583,43.391667 V 43.92083 m -5.291666,47.360417 h 7.408332 v 6.350003 h -7.408332 z m 7.672916,-0.264587 v 6.61458 m 1e-6,-6.614576 a 3.96875,3.96875 0 0 0 -1.984375,-3.437038 3.96875,3.96875 0 0 0 -3.96875,0 3.96875,3.96875 0 0 0 -1.984375,3.437038 m 0,6.614576 v -6.61458 m 7.9375,6.61458 a 3.96875,3.96875 0 0 1 -1.984375,3.43704 3.96875,3.96875 0 0 1 -3.96875,0 3.96875,3.96875 0 0 1 -1.984375,-3.43704 M 47.625,68.791666 h 2.645833 V 87.3125 H 47.625 Z" /></g></svg>
