<?xml version="1.0" encoding="UTF-8" standalone="no"?>
<!-- Created with Inkscape (http://www.inkscape.org/) -->

<svg
   width="210mm"
   height="297mm"
   viewBox="0 0 210 297"
   version="1.1"
   id="svg5"
   inkscape:version="1.2.1 (9c6d41e410, 2022-07-14)"
   sodipodi:docname="ICON_thermal_bath.svg"
   xml:space="preserve"
   inkscape:export-filename="ICON_thermal_bath.png"
   inkscape:export-xdpi="96"
   inkscape:export-ydpi="96"
   xmlns:inkscape="http://www.inkscape.org/namespaces/inkscape"
   xmlns:sodipodi="http://sodipodi.sourceforge.net/DTD/sodipodi-0.dtd"
   xmlns="http://www.w3.org/2000/svg"
   xmlns:svg="http://www.w3.org/2000/svg"><sodipodi:namedview
     id="namedview7"
     pagecolor="#ffffff"
     bordercolor="#000000"
     borderopacity="0.25"
     inkscape:showpageshadow="2"
     inkscape:pageopacity="0.0"
     inkscape:pagecheckerboard="0"
     inkscape:deskcolor="#d1d1d1"
     inkscape:document-units="mm"
     showgrid="true"
     inkscape:zoom="2.587745"
     inkscape:cx="190.8998"
     inkscape:cy="242.2959"
     inkscape:window-width="2498"
     inkscape:window-height="1417"
     inkscape:window-x="54"
     inkscape:window-y="-8"
     inkscape:window-maximized="1"
     inkscape:current-layer="layer1"><inkscape:grid
       type="xygrid"
       id="grid13090"
       color="#98ddff"
       opacity="0.14901961"
       empcolor="#9fdfff"
       empopacity="0.30196078" /></sodipodi:namedview><defs
     id="defs2" /><g
     inkscape:groupmode="layer"
     id="layer2"
     inkscape:label="Layer 2"><rect
       style="fill:#f7fef6;fill-opacity:1;stroke-width:0.709684"
       id="rect896"
       width="70.114586"
       height="79.375"
       x="7.9375"
       y="29.104166"
       ry="0" /></g><g
     inkscape:label="Layer 1"
     inkscape:groupmode="layer"
     id="layer1"><text
       xml:space="preserve"
       style="font-size:12.973px;fill:#000000;fill-opacity:1;stroke:#000000;stroke-width:0;stroke-dasharray:none;stroke-opacity:1"
       x="53.105179"
       y="43.705765"
       id="text20997"
       transform="scale(0.99645024,1.0035624)"><tspan
         sodipodi:role="line"
         id="tspan20995"
         style="fill:#000000;fill-opacity:1;stroke-width:0;stroke-dasharray:none"
         x="53.105179"
         y="43.705765">T<tspan
   style="font-size:65%;baseline-shift:sub"
   id="tspan413">0</tspan></tspan></text><g
       id="path4801" /><g
       id="g4867"
       transform="translate(-3.175)" /><path
       id="path4935"
       style="fill:#21f290;stroke:#21f290;stroke-width:0.219728"
       d="m 70.949863,41.265517 a 0.73145543,0.60352027 0 0 1 -0.731455,0.60352 0.73145543,0.60352027 0 0 1 -0.731455,-0.60352 0.73145543,0.60352027 0 0 1 0.731455,-0.603521 0.73145543,0.60352027 0 0 1 0.731455,0.603521 z m 0.487637,3.320152 h 1.828639 M 71.4375,47.100337 h 1.828639 M 71.4375,39.556334 h 1.828639 M 71.4375,42.071002 h 1.828639 M 71.4375,34.526998 h 1.828639 M 71.4375,37.041667 h 1.828639 m -3.901096,-4.828955 c 0,-0.25111 0.163236,-0.483163 0.426802,-0.608718 0.263568,-0.125555 0.589558,-0.125555 0.853126,0 0.263566,0.125555 0.426802,0.357608 0.426802,0.608718 h -0.243819 c 0,-0.180124 -0.115414,-0.346391 -0.304473,-0.436453 -0.189059,-0.09006 -0.421087,-0.09006 -0.610146,0 -0.189059,0.09006 -0.304473,0.256329 -0.304473,0.436453 z m 0,0 v 16.496221 h 0.243819 V 32.212712 Z m 0.12191,16.496221 V 32.212712 m 1.341001,0 v 16.496221 h 0.243819 V 32.212712 Z m 0.121909,16.496221 V 32.212712 m -2.438184,18.005021 h 3.413458 v 2.414083 h -3.413458 z m 3.535367,-0.100591 v 2.514666 m 1e-6,-2.514665 a 1.8286386,1.5088006 0 0 0 -0.914319,-1.306659 1.8286386,1.5088006 0 0 0 -1.828639,0 1.8286386,1.5088006 0 0 0 -0.91432,1.306659 m 0,2.514665 v -2.514666 m 3.657278,2.514666 a 1.8286386,1.5088006 0 0 1 -0.914319,1.30666 1.8286386,1.5088006 0 0 1 -1.828639,0 1.8286386,1.5088006 0 0 1 -0.91432,-1.30666 M 69.608862,41.66786 h 1.219092 v 7.041071 h -1.219092 z" /><path
       style="fill:#21f290;stroke:#21f290;stroke-width:0.524999"
       d="M 26.458333,93.927079 47.625,93.92708"
       id="path349"
       sodipodi:nodetypes="cc" /><path
       style="fill:#21f290;stroke:#21f290;stroke-width:0.524999"
       d="m 29.104166,96.572912 15.875,2e-6"
       id="path351"
       sodipodi:nodetypes="cc" /><path
       style="fill:#21f290;stroke:#21f290;stroke-width:0.524999"
       d="m 33.072916,99.218746 7.9375,10e-7"
       id="path353"
       sodipodi:nodetypes="cc" /><path
       style="fill:#21f290;stroke:#21f290;stroke-width:0.524999"
       d="m 35.718749,101.86458 h 2.645834"
       id="path451" /><path
       style="fill:#21f290;stroke:#21f290;stroke-width:0.524999"
       d="m 37.041666,93.927079 v -7.9375"
       id="path453" /><path
       style="fill:none;stroke:#21f290;stroke-width:0.459099"
       id="path507"
       sodipodi:type="arc"
       sodipodi:cx="37.041664"
       sodipodi:cy="80.697906"
       sodipodi:rx="17.197916"
       sodipodi:ry="5.2916665"
       sodipodi:start="0"
       sodipodi:end="3.1415927"
       sodipodi:open="true"
       sodipodi:arc-type="arc"
       d="m 54.23958,80.697906 a 17.197916,5.2916665 0 0 1 -8.598958,4.582718 17.197916,5.2916665 0 0 1 -17.197916,0 17.197916,5.2916665 0 0 1 -8.598958,-4.582718" /><ellipse
       style="fill:none;stroke:#21f290;stroke-width:0.459804"
       id="ellipse1063"
       cx="37.041668"
       cy="51.59375"
       rx="17.197916"
       ry="5.3079286" /><path
       style="fill:none;stroke:#21f290;stroke-width:0.524999"
       d="M 19.84375,51.59375 V 80.697917"
       id="path1171" /><path
       style="fill:none;stroke:#21f290;stroke-width:0.524999"
       d="M 54.239583,80.697917 V 51.59375"
       id="path1173" /><path
       style="fill:none;stroke:#21f290;stroke-width:0.524999"
       d="M 37.041666,51.593749 V 41.010416 h 14.552083"
       id="path1175" /><text
       xml:space="preserve"
       style="font-size:12.973px;fill:#000000;fill-opacity:1;stroke:#000000;stroke-width:0;stroke-dasharray:none;stroke-opacity:1"
       x="25.380711"
       y="71.012886"
       id="text309"
       transform="scale(0.99645024,1.0035624)"><tspan
         sodipodi:role="line"
         id="tspan307"
         style="fill:#000000;fill-opacity:1;stroke-width:0;stroke-dasharray:none"
         x="25.380711"
         y="71.012886">mC</tspan></text></g></svg>
