<?xml version="1.0" encoding="UTF-8" standalone="no"?>
<!-- Created with Inkscape (http://www.inkscape.org/) -->

<svg
   width="210mm"
   height="297mm"
   viewBox="0 0 210 297"
   version="1.1"
   id="svg5"
   inkscape:version="1.2.1 (9c6d41e410, 2022-07-14)"
   sodipodi:docname="ICON_thermal_optical_gate_Wije.svg"
   xml:space="preserve"
   inkscape:export-filename="ICON_thermal_optical_gate_Wije.png"
   inkscape:export-xdpi="96"
   inkscape:export-ydpi="96"
   xmlns:inkscape="http://www.inkscape.org/namespaces/inkscape"
   xmlns:sodipodi="http://sodipodi.sourceforge.net/DTD/sodipodi-0.dtd"
   xmlns="http://www.w3.org/2000/svg"
   xmlns:svg="http://www.w3.org/2000/svg"><sodipodi:namedview
     id="namedview7"
     pagecolor="#ffffff"
     bordercolor="#000000"
     borderopacity="0.25"
     inkscape:showpageshadow="2"
     inkscape:pageopacity="0.0"
     inkscape:pagecheckerboard="0"
     inkscape:deskcolor="#d1d1d1"
     inkscape:document-units="mm"
     showgrid="true"
     inkscape:zoom="1.302204"
     inkscape:cx="272.99871"
     inkscape:cy="644.29231"
     inkscape:window-width="2498"
     inkscape:window-height="1417"
     inkscape:window-x="2552"
     inkscape:window-y="-8"
     inkscape:window-maximized="1"
     inkscape:current-layer="layer1"><inkscape:grid
       type="xygrid"
       id="grid13090"
       color="#98ddff"
       opacity="0.14901961"
       empcolor="#9fdfff"
       empopacity="0.30196078" /></sodipodi:namedview><defs
     id="defs2"><marker
       style="overflow:visible"
       id="marker1540"
       refX="0"
       refY="0"
       orient="auto-start-reverse"
       inkscape:stockid="Arrow5"
       markerWidth="3.8870001"
       markerHeight="4.3637118"
       viewBox="0 0 5.8874262 6.6094758"
       inkscape:isstock="true"
       inkscape:collect="always"
       preserveAspectRatio="xMidYMid"><path
         transform="scale(0.5)"
         style="fill:context-stroke;fill-rule:evenodd;stroke:context-stroke;stroke-width:1pt"
         d="m 6,0 c -3,1 -7,3 -9,5 0,0 0,-4 2,-5 -2,-1 -2,-5 -2,-5 2,2 6,4 9,5 z"
         id="path1538" /></marker><marker
       style="overflow:visible"
       id="Arrow5"
       refX="0"
       refY="0"
       orient="auto-start-reverse"
       inkscape:stockid="Arrow5"
       markerWidth="3.8870001"
       markerHeight="4.3637118"
       viewBox="0 0 5.8874262 6.6094758"
       inkscape:isstock="true"
       inkscape:collect="always"
       preserveAspectRatio="xMidYMid"><path
         transform="scale(0.5)"
         style="fill:context-stroke;fill-rule:evenodd;stroke:context-stroke;stroke-width:1pt"
         d="m 6,0 c -3,1 -7,3 -9,5 0,0 0,-4 2,-5 -2,-1 -2,-5 -2,-5 2,2 6,4 9,5 z"
         id="path8893" /></marker><marker
       style="overflow:visible"
       id="marker17796"
       refX="0"
       refY="0"
       orient="auto-start-reverse"
       inkscape:stockid="Arrow1L"
       markerWidth="8.75"
       markerHeight="5"
       viewBox="0 0 8.75 5"
       inkscape:isstock="true"
       inkscape:collect="always"
       preserveAspectRatio="xMidYMid"><path
         style="fill:context-stroke;fill-rule:evenodd;stroke:none"
         d="M 0,0 5,-5 -12.5,0 5,5 Z"
         id="path17794"
         transform="scale(-0.5)" /></marker><marker
       style="overflow:visible"
       id="Arrow1L"
       refX="0"
       refY="0"
       orient="auto-start-reverse"
       inkscape:stockid="Arrow1L"
       markerWidth="8.75"
       markerHeight="5"
       viewBox="0 0 8.75 5"
       inkscape:isstock="true"
       inkscape:collect="always"
       preserveAspectRatio="xMidYMid"><path
         style="fill:context-stroke;fill-rule:evenodd;stroke:none"
         d="M 0,0 5,-5 -12.5,0 5,5 Z"
         id="arrow1L"
         transform="scale(-0.5)" /></marker></defs><g
     inkscape:groupmode="layer"
     id="layer2"
     inkscape:label="Layer 2"
     sodipodi:insensitive="true"><rect
       style="fill:#f7fef6;fill-opacity:1;stroke-width:1.86188"
       id="rect896"
       width="169.33334"
       height="226.21875"
       x="2.6458333"
       y="17.197916"
       ry="0" /></g><g
     inkscape:label="Layer 1"
     inkscape:groupmode="layer"
     id="layer1"><path
       style="fill:#6cff26;fill-opacity:1;stroke:#21f290;stroke-width:1.15285;stroke-dasharray:none;stroke-opacity:1"
       d="M 43.65625,113.77082 H 71.4375"
       id="path3537"
       sodipodi:nodetypes="cc" /><text
       xml:space="preserve"
       style="font-size:7.29539px;fill:#000000;fill-opacity:1;stroke:#000000;stroke-width:0;stroke-dasharray:none;stroke-opacity:1"
       x="44.740429"
       y="119.47887"
       id="text3595"
       transform="scale(0.98168191,1.0186599)"><tspan
         sodipodi:role="line"
         id="tspan3593"
         style="fill:#000000;fill-opacity:1;stroke-width:0;stroke-dasharray:none"
         x="44.740429"
         y="119.47887">|e&gt;</tspan></text><path
       style="fill:none;fill-opacity:1;stroke:#21f290;stroke-width:0.88394;stroke-dasharray:none;stroke-opacity:1"
       d="m 5.181554,121.70833 c 0,0 1.03697,-4.03826 2.07394,-4.03826 1.03697,0 2.073939,4.03826 2.073939,4.03826 0,0 1.036969,4.03825 2.073939,4.03825 1.036969,0 2.073939,-4.03825 2.073939,-4.03825 0,0 1.03697,-4.03826 2.07394,-4.03826 1.036968,0 2.073938,4.03826 2.073938,4.03826 0,0 1.03697,4.03825 2.073939,4.03825 1.03697,0 2.073939,-4.03825 2.073939,-4.03825 0,0 1.03697,-4.03826 2.07394,-4.03826 1.03697,0 2.07394,4.03826 2.07394,4.03826 0,0 1.03697,4.03825 2.073939,4.03825 1.036969,0 2.073939,-4.03825 2.073939,-4.03825 0,0 1.03697,-4.03826 2.073939,-4.03826 1.036969,0 2.07394,4.03826 2.07394,4.03826 0,0 1.036969,4.03825 2.073939,4.03825 1.03697,0 2.07394,-4.03825 2.07394,-4.03825"
       id="path16467"
       sodipodi:nodetypes="czczczczczczczczc" /><ellipse
       style="fill:none;fill-opacity:1;stroke:#14ff91;stroke-width:1;stroke-dasharray:none;stroke-opacity:1"
       id="path16637"
       cx="41.010418"
       cy="113.77081"
       rx="2.6458359"
       ry="2.6458333" /><path
       style="fill:#6cff26;fill-opacity:1;stroke:#21f290;stroke-width:1.15285;stroke-dasharray:none;stroke-opacity:1"
       d="M 43.65625,149.48958 H 71.4375"
       id="path17379"
       sodipodi:nodetypes="cc" /><text
       xml:space="preserve"
       style="font-size:7.29539px;fill:#000000;fill-opacity:1;stroke:#000000;stroke-width:0;stroke-dasharray:none;stroke-opacity:1"
       x="44.740429"
       y="154.54332"
       id="text17383"
       transform="scale(0.98168191,1.0186599)"><tspan
         sodipodi:role="line"
         id="tspan17381"
         style="fill:#000000;fill-opacity:1;stroke-width:0;stroke-dasharray:none"
         x="44.740429"
         y="154.54332">|g&gt;</tspan></text><ellipse
       style="fill:none;fill-opacity:1;stroke:#14ff91;stroke-width:1;stroke-dasharray:none;stroke-opacity:1"
       id="ellipse17385"
       cx="41.010418"
       cy="149.48958"
       rx="2.6458359"
       ry="2.6458333" /><path
       style="fill:none;fill-opacity:1;stroke:#000000;stroke-width:0.8;stroke-dasharray:none;stroke-opacity:1;marker-start:url(#Arrow1L);marker-end:url(#marker17796)"
       d="M 63.5,120.38541 V 142.875"
       id="path17543"
       sodipodi:nodetypes="cc" /><text
       xml:space="preserve"
       style="font-size:9.66917px;fill:#000000;fill-opacity:1;stroke:#000000;stroke-width:0.157858;stroke-dasharray:none;stroke-opacity:1"
       x="65.291458"
       y="131.35863"
       id="text18608"
       transform="scale(0.98725076,1.0129139)"><tspan
         sodipodi:role="line"
         id="tspan18606"
         style="fill:#000000;fill-opacity:1;stroke:#000000;stroke-width:0.157858;stroke-dasharray:none;stroke-opacity:1"
         x="65.291458"
         y="131.35863">ğœ”<tspan
   style="font-size:6.28496px;baseline-shift:sub;stroke-width:0.157858"
   id="tspan640">M</tspan></tspan></text><text
       xml:space="preserve"
       style="font-size:8.57532px;fill:#000000;fill-opacity:1;stroke:#000000;stroke-width:0.14;stroke-dasharray:none;stroke-opacity:1"
       x="15.089527"
       y="127.00124"
       id="text19736"
       transform="scale(1.1149719,0.89688359)"><tspan
         sodipodi:role="line"
         id="tspan19734"
         style="fill:#000000;fill-opacity:1;stroke:#000000;stroke-width:0.14;stroke-dasharray:none;stroke-opacity:1"
         x="15.089527"
         y="127.00124">ğœ…<tspan
   style="font-size:65%;baseline-shift:sub"
   id="tspan19738">M</tspan></tspan></text><text
       xml:space="preserve"
       style="font-size:8.99889px;fill:#000000;fill-opacity:1;stroke:#000000;stroke-width:0;stroke-dasharray:none;stroke-opacity:1"
       x="45.969612"
       y="104.46001"
       id="text20997"
       transform="scale(0.95936394,1.0423573)"><tspan
         sodipodi:role="line"
         id="tspan20995"
         style="fill:#000000;fill-opacity:1;stroke-width:0;stroke-dasharray:none"
         x="45.969612"
         y="104.46001">TLS M</tspan></text><text
       xml:space="preserve"
       style="font-size:8.99889px;fill:#000000;fill-opacity:1;stroke:#000000;stroke-width:0;stroke-dasharray:none;stroke-opacity:1"
       x="160.13451"
       y="40.001263"
       id="text21001"
       transform="scale(0.95936394,1.0423573)"><tspan
         sodipodi:role="line"
         id="tspan20999"
         style="fill:#000000;fill-opacity:1;stroke-width:0;stroke-dasharray:none"
         x="160.13451"
         y="40.001263">T=0</tspan></text><path
       style="fill:none;fill-opacity:1;stroke:#21f290;stroke-width:1.153;stroke-dasharray:none;stroke-opacity:1"
       d="M 162.71875,43.65625 V 55.5625 h 6.61458"
       id="path21005" /><path
       style="fill:#6cff26;fill-opacity:1;stroke:#21f290;stroke-width:1.15285;stroke-dasharray:none;stroke-opacity:1;marker-start:url(#Arrow5);marker-end:url(#marker1540)"
       d="M 79.375,104.51042 97.895833,88.635422"
       id="path539"
       sodipodi:nodetypes="cc" /><path
       style="fill:#6cff26;fill-opacity:1;stroke:#21f290;stroke-width:1.15285;stroke-dasharray:none;stroke-opacity:1"
       d="M 107.15625,68.791662 H 134.9375"
       id="path378"
       sodipodi:nodetypes="cc" /><text
       xml:space="preserve"
       style="font-size:7.29539px;fill:#000000;fill-opacity:1;stroke:#000000;stroke-width:0;stroke-dasharray:none;stroke-opacity:1"
       x="109.42534"
       y="75.323647"
       id="text382"
       transform="scale(0.98168191,1.0186599)"><tspan
         sodipodi:role="line"
         id="tspan380"
         style="fill:#000000;fill-opacity:1;stroke-width:0;stroke-dasharray:none"
         x="109.42534"
         y="75.323647">|e&gt;</tspan></text><ellipse
       style="fill:none;fill-opacity:1;stroke:#14ff91;stroke-width:1;stroke-dasharray:none;stroke-opacity:1"
       id="ellipse384"
       cx="104.51042"
       cy="68.791649"
       rx="2.6458359"
       ry="2.6458333" /><path
       style="fill:#6cff26;fill-opacity:1;stroke:#21f290;stroke-width:1.15285;stroke-dasharray:none;stroke-opacity:1"
       d="M 107.15625,104.51042 H 134.9375"
       id="path386"
       sodipodi:nodetypes="cc" /><text
       xml:space="preserve"
       style="font-size:7.29539px;fill:#000000;fill-opacity:1;stroke:#000000;stroke-width:0;stroke-dasharray:none;stroke-opacity:1"
       x="109.42534"
       y="110.3881"
       id="text390"
       transform="scale(0.98168191,1.0186599)"><tspan
         sodipodi:role="line"
         id="tspan388"
         style="fill:#000000;fill-opacity:1;stroke-width:0;stroke-dasharray:none"
         x="109.42534"
         y="110.3881">|g&gt;</tspan></text><ellipse
       style="fill:none;fill-opacity:1;stroke:#14ff91;stroke-width:1;stroke-dasharray:none;stroke-opacity:1"
       id="ellipse392"
       cx="104.51042"
       cy="104.51042"
       rx="2.6458359"
       ry="2.6458333" /><path
       style="fill:none;fill-opacity:1;stroke:#000000;stroke-width:0.8;stroke-dasharray:none;stroke-opacity:1;marker-start:url(#Arrow1L);marker-end:url(#marker17796)"
       d="m 127,75.406252 v 22.48959"
       id="path394"
       sodipodi:nodetypes="cc" /><text
       xml:space="preserve"
       style="font-size:9.66828px;fill:#000000;fill-opacity:1;stroke:#000000;stroke-width:0.157844;stroke-dasharray:none;stroke-opacity:1"
       x="129.62387"
       y="86.944649"
       id="text398"
       transform="scale(0.9871569,1.0130102)"><tspan
         sodipodi:role="line"
         id="tspan396"
         style="fill:#000000;fill-opacity:1;stroke:#000000;stroke-width:0.157844;stroke-dasharray:none;stroke-opacity:1"
         x="129.62387"
         y="86.944649">ğœ”<tspan
   style="font-size:6.28438px;baseline-shift:sub;stroke-width:0.157844"
   id="tspan642">L</tspan></tspan></text><text
       xml:space="preserve"
       style="font-size:8.99889px;fill:#000000;fill-opacity:1;stroke:#000000;stroke-width:0;stroke-dasharray:none;stroke-opacity:1"
       x="112.15923"
       y="61.308613"
       id="text402"
       transform="scale(0.95936394,1.0423573)"><tspan
         sodipodi:role="line"
         id="tspan400"
         style="fill:#000000;fill-opacity:1;stroke-width:0;stroke-dasharray:none"
         x="112.15923"
         y="61.308613">TLS L</tspan></text><path
       style="fill:#6cff26;fill-opacity:1;stroke:#21f290;stroke-width:1.15285;stroke-dasharray:none;stroke-opacity:1"
       d="M 107.15625,160.07291 H 134.9375"
       id="path404"
       sodipodi:nodetypes="cc" /><text
       xml:space="preserve"
       style="font-size:7.29539px;fill:#000000;fill-opacity:1;stroke:#000000;stroke-width:0;stroke-dasharray:none;stroke-opacity:1"
       x="109.42534"
       y="164.93279"
       id="text408"
       transform="scale(0.98168191,1.0186599)"><tspan
         sodipodi:role="line"
         id="tspan406"
         style="fill:#000000;fill-opacity:1;stroke-width:0;stroke-dasharray:none"
         x="109.42534"
         y="164.93279">|e&gt;</tspan></text><ellipse
       style="fill:none;fill-opacity:1;stroke:#14ff91;stroke-width:1;stroke-dasharray:none;stroke-opacity:1"
       id="ellipse410"
       cx="104.51042"
       cy="160.07289"
       rx="2.6458359"
       ry="2.6458333" /><path
       style="fill:#6cff26;fill-opacity:1;stroke:#21f290;stroke-width:1.15285;stroke-dasharray:none;stroke-opacity:1"
       d="M 107.15625,195.79167 H 134.9375"
       id="path412"
       sodipodi:nodetypes="cc" /><text
       xml:space="preserve"
       style="font-size:7.29539px;fill:#000000;fill-opacity:1;stroke:#000000;stroke-width:0;stroke-dasharray:none;stroke-opacity:1"
       x="109.42534"
       y="199.99724"
       id="text416"
       transform="scale(0.98168191,1.0186599)"><tspan
         sodipodi:role="line"
         id="tspan414"
         style="fill:#000000;fill-opacity:1;stroke-width:0;stroke-dasharray:none"
         x="109.42534"
         y="199.99724">|g&gt;</tspan></text><ellipse
       style="fill:none;fill-opacity:1;stroke:#14ff91;stroke-width:1;stroke-dasharray:none;stroke-opacity:1"
       id="ellipse418"
       cx="104.51042"
       cy="195.79167"
       rx="2.6458359"
       ry="2.6458333" /><path
       style="fill:none;fill-opacity:1;stroke:#000000;stroke-width:0.8;stroke-dasharray:none;stroke-opacity:1;marker-start:url(#Arrow1L);marker-end:url(#marker17796)"
       d="m 127,166.6875 v 22.48959"
       id="path420"
       sodipodi:nodetypes="cc" /><text
       xml:space="preserve"
       style="font-size:9.66896px;fill:#000000;fill-opacity:1;stroke:#000000;stroke-width:0.157855;stroke-dasharray:none;stroke-opacity:1"
       x="129.61423"
       y="177.06667"
       id="text424"
       transform="scale(0.98722999,1.0129352)"><tspan
         sodipodi:role="line"
         id="tspan422"
         style="fill:#000000;fill-opacity:1;stroke:#000000;stroke-width:0.157855;stroke-dasharray:none;stroke-opacity:1"
         x="129.61423"
         y="177.06667">ğœ”<tspan
   style="font-size:6.28483px;baseline-shift:sub;stroke-width:0.157855"
   id="tspan644">R</tspan></tspan></text><text
       xml:space="preserve"
       style="font-size:8.99889px;fill:#000000;fill-opacity:1;stroke:#000000;stroke-width:0;stroke-dasharray:none;stroke-opacity:1"
       x="112.15923"
       y="148.88055"
       id="text428"
       transform="scale(0.95936394,1.0423573)"><tspan
         sodipodi:role="line"
         id="tspan426"
         style="fill:#000000;fill-opacity:1;stroke-width:0;stroke-dasharray:none"
         x="112.15923"
         y="148.88055">TLS R</tspan></text><text
       xml:space="preserve"
       style="font-size:9.55875px;fill:#000000;fill-opacity:1;stroke:#000000;stroke-width:0.156055;stroke-dasharray:none;stroke-opacity:1"
       x="72.456352"
       y="91.858376"
       id="text636"
       transform="scale(0.99915899,1.0008417)"><tspan
         sodipodi:role="line"
         id="tspan634"
         style="fill:#000000;fill-opacity:1;stroke:#000000;stroke-width:0.156055;stroke-dasharray:none;stroke-opacity:1"
         x="72.456352"
         y="91.858376">ğœ”<tspan
   style="font-size:6.21319px;baseline-shift:sub;stroke-width:0.156055"
   id="tspan638">LM</tspan></tspan></text><path
       style="fill:#6cff26;fill-opacity:1;stroke:#21f290;stroke-width:1.15285;stroke-dasharray:none;stroke-opacity:1;marker-start:url(#Arrow5);marker-end:url(#marker1540)"
       d="m 79.375,158.75 18.544148,15.90317"
       id="path646"
       sodipodi:nodetypes="cc" /><text
       xml:space="preserve"
       style="font-size:9.60021px;fill:#000000;fill-opacity:1;stroke:#000000;stroke-width:0.156732;stroke-dasharray:none;stroke-opacity:1"
       x="72.766502"
       y="171.79337"
       id="text652"
       transform="scale(0.99490461,1.0051215)"><tspan
         sodipodi:role="line"
         id="tspan650"
         style="fill:#000000;fill-opacity:1;stroke:#000000;stroke-width:0.156732;stroke-dasharray:none;stroke-opacity:1"
         x="72.766502"
         y="171.79337">ğœ”<tspan
   style="font-size:6.24013px;baseline-shift:sub;stroke-width:0.156732"
   id="tspan648">MR</tspan></tspan></text><path
       style="fill:#6cff26;fill-opacity:1;stroke:#21f290;stroke-width:1.15285;stroke-dasharray:none;stroke-opacity:1;marker-start:url(#Arrow5);marker-end:url(#marker1540)"
       d="m 123.03125,120.38542 v 18.52083"
       id="path654"
       sodipodi:nodetypes="cc" /><text
       xml:space="preserve"
       style="font-size:9.60021px;fill:#000000;fill-opacity:1;stroke:#000000;stroke-width:0.156732;stroke-dasharray:none;stroke-opacity:1"
       x="106.8066"
       y="130.46542"
       id="text660"
       transform="scale(0.9949046,1.0051215)"><tspan
         sodipodi:role="line"
         id="tspan658"
         style="fill:#000000;fill-opacity:1;stroke:#000000;stroke-width:0.156732;stroke-dasharray:none;stroke-opacity:1"
         x="106.8066"
         y="130.46542">ğœ”<tspan
   style="font-size:6.24013px;baseline-shift:sub;stroke-width:0.156732"
   id="tspan656">RL</tspan></tspan></text><path
       style="fill:none;fill-opacity:1;stroke:#21f290;stroke-width:0.88394;stroke-dasharray:none;stroke-opacity:1"
       d="m 121.70833,207.5878 c 0,0 4.03826,1.03697 4.03826,2.07394 0,1.03697 -4.03826,2.07394 -4.03826,2.07394 0,0 -4.03825,1.03697 -4.03825,2.07393 0,1.03697 4.03825,2.07394 4.03825,2.07394 0,0 4.03826,1.03697 4.03826,2.07394 0,1.03697 -4.03826,2.07394 -4.03826,2.07394 0,0 -4.03825,1.03697 -4.03825,2.07394 0,1.03697 4.03825,2.07394 4.03825,2.07394 0,0 4.03826,1.03697 4.03826,2.07394 0,1.03697 -4.03826,2.07394 -4.03826,2.07394 0,0 -4.03825,1.03697 -4.03825,2.07394 0,1.03697 4.03825,2.07394 4.03825,2.07394 0,0 4.03826,1.03697 4.03826,2.07394 0,1.03697 -4.03826,2.07394 -4.03826,2.07394 0,0 -4.03825,1.03697 -4.03825,2.07394 0,1.03697 4.03825,2.07394 4.03825,2.07394"
       id="path662"
       sodipodi:nodetypes="czczczczczczczczc" /><text
       xml:space="preserve"
       style="font-size:8.57532px;fill:#000000;fill-opacity:1;stroke:#000000;stroke-width:0.14;stroke-dasharray:none;stroke-opacity:1"
       x="95.157486"
       y="250.75255"
       id="text668"
       transform="scale(1.1149719,0.89688359)"><tspan
         sodipodi:role="line"
         id="tspan666"
         style="fill:#000000;fill-opacity:1;stroke:#000000;stroke-width:0.14;stroke-dasharray:none;stroke-opacity:1"
         x="95.157486"
         y="250.75255">ğœ…<tspan
   style="font-size:65%;baseline-shift:sub"
   id="tspan664">R</tspan></tspan></text><path
       style="fill:none;fill-opacity:1;stroke:#21f290;stroke-width:0.88394;stroke-dasharray:none;stroke-opacity:1"
       d="m 121.70833,19.84375 c 0,0 4.03826,1.036964 4.03826,2.073928 0,1.036964 -4.03826,2.073928 -4.03826,2.073928 0,0 -4.03825,1.036967 -4.03825,2.073921 0,1.036964 4.03825,2.073928 4.03825,2.073928 0,0 4.03826,1.036964 4.03826,2.073928 0,1.036964 -4.03826,2.073928 -4.03826,2.073928 0,0 -4.03825,1.036964 -4.03825,2.073928 0,1.036964 4.03825,2.073928 4.03825,2.073928 0,0 4.03826,1.036964 4.03826,2.073928 0,1.036964 -4.03826,2.073928 -4.03826,2.073928 0,0 -4.03825,1.036964 -4.03825,2.073928 0,1.036964 4.03825,2.073928 4.03825,2.073928 0,0 4.03826,1.036964 4.03826,2.07394 0,1.03697 -4.03826,2.07394 -4.03826,2.07394 0,0 -4.03825,1.03697 -4.03825,2.07394 0,1.03697 4.03825,2.07394 4.03825,2.07394"
       id="path670"
       sodipodi:nodetypes="czczczczczczczczc" /><text
       xml:space="preserve"
       style="font-size:8.57532px;fill:#000000;fill-opacity:1;stroke:#000000;stroke-width:0.14;stroke-dasharray:none;stroke-opacity:1"
       x="95.157486"
       y="40.120258"
       id="text676"
       transform="scale(1.1149719,0.89688359)"><tspan
         sodipodi:role="line"
         id="tspan674"
         style="fill:#000000;fill-opacity:1;stroke:#000000;stroke-width:0.14;stroke-dasharray:none;stroke-opacity:1"
         x="95.157486"
         y="40.120258">ğœ…<tspan
   style="font-size:65%;baseline-shift:sub"
   id="tspan672">L</tspan></tspan></text><text
       xml:space="preserve"
       style="font-size:9.55875px;fill:#000000;fill-opacity:1;stroke:#000000;stroke-width:0.156055;stroke-dasharray:none;stroke-opacity:1"
       x="19.084093"
       y="203.47987"
       id="text5910"
       transform="scale(0.999159,1.0008417)"><tspan
         sodipodi:role="line"
         id="tspan5908"
         style="fill:#000000;fill-opacity:1;stroke:#000000;stroke-width:0.156055;stroke-dasharray:none;stroke-opacity:1"
         x="19.084093"
         y="203.47987">Î©</tspan></text><path
       id="path6792"
       style="fill:none;fill-opacity:1;stroke:#8b21f2;stroke-width:0.45;stroke-dasharray:none;stroke-opacity:1"
       d="m 37.041666,188.51562 c 0,0 3.588729,2.12223 4.321978,1.38898 0.733248,-0.73325 -1.388985,-4.32198 -1.388985,-4.32198 0,0 -2.122226,-3.58872 -1.388978,-4.32197 0.733248,-0.73324 4.321971,1.38898 4.321971,1.38898 0,0 3.588729,2.12223 4.321978,1.38899 0.733247,-0.73325 -1.388986,-4.32198 -1.388986,-4.32198 0,0 -2.122225,-3.58872 -1.388977,-4.32197 0.733248,-0.73325 4.32197,1.38898 4.32197,1.38898 0,0 3.588729,2.12223 4.321978,1.38898 0.733248,-0.73325 -1.388984,-4.32198 -1.388984,-4.32198 0,0 -2.122225,-3.58872 -1.388978,-4.32197 0.733248,-0.73325 4.321971,1.38898 4.321971,1.38898 0,0 3.588729,2.12223 4.321977,1.38898 0.733248,-0.73324 -1.388984,-4.32197 -1.388984,-4.32197 0,0 -2.122226,-3.58872 -1.388978,-4.32197 0.733249,-0.73325 4.321971,1.38897 4.321971,1.38897 M 31.75,188.51562 a 5.2916675,5.2916679 0 0 0 5.291667,5.29167 m -10e-7,0 1.322917,1.32291 v 6.61459 l -7.9375,7.9375 M 24.034216,187.2995 a 17.197918,17.197918 0 0 0 14.289537,14.23413 m -1.282087,-7.72634 a 5.2916675,5.2916665 0 0 0 -5.291667,-5.29167 M 15.875,195.1302 l 7.937499,-7.9375 h 6.614584 l 1.322916,1.32292" /><text
       xml:space="preserve"
       style="font-size:9.55875px;fill:#000000;fill-opacity:1;stroke:#000000;stroke-width:0.156055;stroke-dasharray:none;stroke-opacity:1"
       x="28.763357"
       y="173.81023"
       id="text6798"
       transform="scale(0.999159,1.0008417)"><tspan
         sodipodi:role="line"
         id="tspan6796"
         style="fill:#000000;fill-opacity:1;stroke:#000000;stroke-width:0.156055;stroke-dasharray:none;stroke-opacity:1"
         x="28.763357"
         y="173.81023">ğœ”<tspan
   style="font-size:6.21319px;baseline-shift:sub;stroke-width:0.156055"
   id="tspan6794">F</tspan></tspan></text><path
       style="fill:none;fill-opacity:1;stroke:#8b21f2;stroke-width:0.8;stroke-dasharray:none;stroke-opacity:1;marker-end:url(#marker17796)"
       d="M 42.319562,201.09711 58.222104,185.19456"
       id="path7614"
       sodipodi:nodetypes="cc" /><text
       xml:space="preserve"
       style="font-size:9.55875px;fill:#000000;fill-opacity:1;stroke:#000000;stroke-width:0.156055;stroke-dasharray:none;stroke-opacity:1"
       x="50.313145"
       y="203.55783"
       id="text7967"
       transform="scale(0.999159,1.0008417)"><tspan
         sodipodi:role="line"
         id="tspan7965"
         style="fill:#000000;fill-opacity:1;stroke:#000000;stroke-width:0.156055;stroke-dasharray:none;stroke-opacity:1"
         x="50.313145"
         y="203.55783">J<tspan
   style="font-size:6.21319px;baseline-shift:sub;stroke-width:0.156055"
   id="tspan7963">F</tspan></tspan></text></g></svg>
